<svg width="18" height="18" viewBox="0 0 18 18" fill="none" xmlns="http://www.w3.org/2000/svg">
<path fill-rule="evenodd" clip-rule="evenodd" d="M10.4947 14.374C10.4947 14.54 10.558 14.6992 10.6706 14.8166C10.7832 14.934 10.936 15 11.0953 15H15.8995C16.0587 15 16.2115 14.934 16.3241 14.8166C16.4367 14.6992 16.5 14.54 16.5 14.374V9.36556C16.5 9.19952 16.4367 9.04028 16.3241 8.92287C16.2115 8.80547 16.0587 8.73951 15.8995 8.73951C15.7402 8.73951 15.5875 8.80547 15.4748 8.92287C15.3622 9.04028 15.2989 9.19952 15.2989 9.36556V12.621L10.9595 7.0905C10.9064 7.0229 10.8403 6.96765 10.7655 6.92829C10.6906 6.88894 10.6087 6.86635 10.525 6.86199C10.4413 6.85762 10.3576 6.87158 10.2794 6.90295C10.2011 6.93433 10.1301 6.98243 10.0708 7.04417L6.96363 10.2833L2.57257 3.98905C2.47651 3.86171 2.33685 3.77815 2.18293 3.75592C2.02901 3.7337 1.87282 3.77453 1.74717 3.86985C1.62153 3.96517 1.53622 4.10755 1.50917 4.26707C1.48212 4.42659 1.51544 4.59083 1.60212 4.72528L6.40634 11.6118C6.45733 11.6851 6.52295 11.7459 6.59866 11.7901C6.67438 11.8344 6.7584 11.861 6.84493 11.8681C6.93146 11.8753 7.01845 11.8628 7.0999 11.8315C7.18135 11.8002 7.25533 11.7509 7.31674 11.6869L10.4503 8.41897L14.6324 13.7479H11.0953C10.936 13.7479 10.7832 13.8139 10.6706 13.9313C10.558 14.0487 10.4947 14.2079 10.4947 14.374Z" fill="#F03D3D"/>
</svg>
