<svg width="18" height="18" viewBox="0 0 18 18" fill="none" xmlns="http://www.w3.org/2000/svg">
<path fill-rule="evenodd" clip-rule="evenodd" d="M10.4947 3.62605C10.4947 3.46001 10.558 3.30077 10.6706 3.18337C10.7832 3.06596 10.936 3 11.0953 3H15.8995C16.0587 3 16.2115 3.06596 16.3241 3.18337C16.4367 3.30077 16.5 3.46001 16.5 3.62605V8.63444C16.5 8.80048 16.4367 8.95972 16.3241 9.07713C16.2115 9.19453 16.0587 9.26049 15.8995 9.26049C15.7402 9.26049 15.5875 9.19453 15.4748 9.07713C15.3622 8.95972 15.2989 8.80048 15.2989 8.63444V5.37899L10.9595 10.9095C10.9064 10.9771 10.8403 11.0324 10.7655 11.0717C10.6906 11.1111 10.6087 11.1336 10.525 11.138C10.4413 11.1424 10.3576 11.1284 10.2794 11.097C10.2011 11.0657 10.1301 11.0176 10.0708 10.9558L6.96363 7.71665L2.57257 14.011C2.47651 14.1383 2.33685 14.2218 2.18293 14.2441C2.02901 14.2663 1.87282 14.2255 1.74717 14.1301C1.62153 14.0348 1.53622 13.8924 1.50917 13.7329C1.48212 13.5734 1.51544 13.4092 1.60212 13.2747L6.40634 6.38818C6.45733 6.31495 6.52295 6.25411 6.59866 6.20986C6.67438 6.16561 6.7584 6.139 6.84493 6.13186C6.93146 6.12472 7.01845 6.13722 7.0999 6.1685C7.18135 6.19978 7.25533 6.2491 7.31674 6.31305L10.4503 9.58103L14.6324 4.2521H11.0953C10.936 4.2521 10.7832 4.18614 10.6706 4.06873C10.558 3.95133 10.4947 3.79209 10.4947 3.62605Z" fill="#0BB07B"/>
</svg>
